# xmcd
#
# Track frame offsets: 
#        150
#        4432
#        43007
#        67287
#        92095
#        142205
#        170997
#        175967
#        182862
#        209765
#        245727
#        266260
#
# Disc length: 3705 seconds
#
# Revision: 3
# Processed by: cddbd v1.5.2PL0 Copyright (c) Steve Scherf et al.
# Submitted via: ExactAudioCopy v1.0b3
#
DISCID=c60e770c
DTITLE=Naruyoshi Kikuchi - Elizabeth Taylor En Amérique Du Sud
DYEAR=2005
DGENRE=Jazz
TTITLE0=Lounge Time #1
TTITLE1=Nocturne For Machiko Kyo
TTITLE2=The Look Of Love
TTITLE3=Jorge Luis Borges
TTITLE4=Elizabeth Taylor En Parisian (Non-Existence)
TTITLE5=The Latina Elizabeth Taylor
TTITLE6=Lounge Time #2
TTITLE7=Lounge Time #3
TTITLE8=Corcovado
TTITLE9=The Funeral Of Lupe Vélez
TTITLE10=Crazy He Calls Me
TTITLE11=Song Of The Latina Elizabeth Taylor
EXTD=YEAR: 2005
EXTT0=
EXTT1=
EXTT2=
EXTT3=
EXTT4=
EXTT5=
EXTT6=
EXTT7=
EXTT8=
EXTT9=
EXTT10=
EXTT11=
PLAYORDER=
